<?xml version="1.0" encoding="iso-8859-1"?>
<!-- Generator: Adobe Illustrator 16.0.0, SVG Export Plug-In . SVG Version: 6.00 Build 0)  -->
<!DOCTYPE svg PUBLIC "-//W3C//DTD SVG 1.1//EN" "http://www.w3.org/Graphics/SVG/1.1/DTD/svg11.dtd">
<svg version="1.1" id="Capa_1" xmlns="http://www.w3.org/2000/svg" xmlns:xlink="http://www.w3.org/1999/xlink" x="0px" y="0px"
	 width="34px" height="34px" viewBox="0 0 34 34" style="enable-background:new 0 0 34 34;" xml:space="preserve">
<g>
	<g>
		<path d="M15.141,7.122l-1.582,2.174c-0.048,0.033-0.075,0.067-0.075,0.104c0,0.275,1.567,0.5,3.5,0.5s3.5-0.225,3.5-0.5
			l-1.813-4.978l0.922-0.727c0,0-2.452,0-3,0c-1.125,0-2.109,1.286-2.109,1.286c-0.075,0-0.218,0-0.5,0c-0.859,0-1,1.417-1,1.417
			h1.5L15.141,7.122z"/>
		<polygon points="8,15.649 15.477,15.649 9.734,23.305 10.734,27.305 15.591,15.649 16.591,15.649 11.734,27.305 16.734,30.305 
			21.734,27.305 16.877,15.649 17.877,15.649 22.734,27.305 23.734,23.305 17.992,15.649 26,15.648 27.904,13.745 6.097,13.746 		
			"/>
		<path d="M17,12.648c-1.717,0-3.271-0.555-4.401-1.451h-9.05l1.903,1.903H28.55l1.903-1.903H21.4
			C20.271,12.093,18.716,12.648,17,12.648z"/>
		<path d="M21.75,7.649c-0.001,1.929-2.131,3.499-4.75,3.499c-2.618,0-4.749-1.57-4.75-3.499H0l2.903,2.902h9.712
			c1.055,0.976,2.628,1.597,4.385,1.597s3.331-0.622,4.387-1.598h9.711L34,7.649l0,0H21.75z"/>
	</g>
</g>
<g>
</g>
<g>
</g>
<g>
</g>
<g>
</g>
<g>
</g>
<g>
</g>
<g>
</g>
<g>
</g>
<g>
</g>
<g>
</g>
<g>
</g>
<g>
</g>
<g>
</g>
<g>
</g>
<g>
</g>
</svg>
