<?xml version="1.0" encoding="iso-8859-1"?>
<!-- Generator: Adobe Illustrator 16.0.0, SVG Export Plug-In . SVG Version: 6.00 Build 0)  -->
<!DOCTYPE svg PUBLIC "-//W3C//DTD SVG 1.1//EN" "http://www.w3.org/Graphics/SVG/1.1/DTD/svg11.dtd">
<svg version="1.1" id="Capa_1" xmlns="http://www.w3.org/2000/svg" xmlns:xlink="http://www.w3.org/1999/xlink" x="0px" y="0px"
	 width="76.832px" height="76.832px" viewBox="0 0 76.832 76.832" style="enable-background:new 0 0 76.832 76.832;"
	 xml:space="preserve">
<g>
	<g>
		<g>
			<path d="M23.184,53.312c0.224,3.809,2.016,7.168,4.48,9.633c0.448-0.449,0.896-0.674,1.568-1.121
				c-1.12-2.463-1.568-5.375-1.792-8.512H23.184z"/>
			<path d="M29.456,53.312c0.224,2.688,0.672,5.375,1.568,7.614c1.12-0.446,2.24-0.895,3.36-1.118
				c-0.224-2.466-0.448-4.929-0.448-6.496C34.16,53.312,29.456,53.312,29.456,53.312z"/>
			<path d="M23.184,50.625h4.256c0.224-3.137,0.672-6.049,1.792-8.512c-0.448-0.225-1.12-0.672-1.568-1.121
				C25.2,43.457,23.632,46.816,23.184,50.625z"/>
			<path d="M29.232,64.289c0.672,0.447,1.344,0.896,2.016,1.344c-0.448-0.672-0.896-1.119-1.12-1.791
				C29.904,63.842,29.68,64.064,29.232,64.289z"/>
			<path d="M42.448,59.809c1.119,0.228,2.238,0.672,3.359,1.121c0.896-2.24,1.344-4.705,1.566-7.617h-4.703
				C42.672,54.881,42.672,57.346,42.448,59.809z"/>
			<path d="M45.81,43.01c-1.121,0.447-2.24,0.896-3.359,1.119c0.224,2.465,0.447,4.928,0.447,6.496h4.479
				C47.151,47.936,46.704,45.248,45.81,43.01z"/>
			<path d="M44.912,41.217c-1.12-2.016-2.464-3.359-4.032-4.255c0.448,1.344,0.896,3.358,1.12,5.152
				C43.12,42.113,44.017,41.664,44.912,41.217z"/>
			<path d="M31.248,38.53c-0.672,0.447-1.344,0.896-2.016,1.343c0.224,0.225,0.448,0.447,0.896,0.672
				C30.576,39.648,31.024,38.977,31.248,38.53z"/>
			<path d="M31.92,62.721c1.12,2.016,2.464,3.359,4.032,4.256c-0.448-1.344-0.896-3.356-1.12-5.149
				C33.712,62.049,32.816,62.271,31.92,62.721z"/>
			<path d="M40.208,42.561c-0.448-3.135-1.12-5.15-1.568-5.824h-0.224h-0.224c-0.448,0.896-1.12,2.912-1.568,5.824
				c0.672,0,1.12,0,1.792,0S39.536,42.561,40.208,42.561z"/>
			<path d="M31.024,43.01c-0.896,2.238-1.568,4.703-1.568,7.615h4.704c0-1.568,0.224-3.809,0.448-6.496
				C33.264,43.904,32.144,43.682,31.024,43.01z"/>
			<path d="M31.92,41.217c0.896,0.447,1.792,0.672,2.688,0.896c0.224-2.019,0.672-3.808,1.12-5.152
				C34.384,37.856,33.04,39.426,31.92,41.217z"/>
			<path d="M47.601,61.824c0.447,0.225,1.121,0.672,1.567,1.121c2.464-2.465,4.256-5.824,4.479-9.633h-4.256
				C49.168,56.449,48.496,59.361,47.601,61.824z"/>
			<path d="M45.584,65.408c0.672-0.447,1.345-0.896,2.017-1.344c-0.225-0.226-0.447-0.447-0.896-0.672
				C46.256,64.289,45.81,64.961,45.584,65.408z"/>
			<path d="M47.601,42.113c1.121,2.463,1.567,5.375,1.793,8.512h4.256c-0.226-3.809-2.018-7.168-4.479-9.633
				C48.496,41.439,48.048,41.889,47.601,42.113z"/>
			<path d="M52.08,31.584L67.536,0H9.296l15.456,31.583c-6.72,4.479-10.976,11.874-10.976,20.608
				c0,13.664,10.976,24.641,24.64,24.641s24.642-10.977,24.642-24.641C63.058,43.457,58.576,35.841,52.08,31.584z M48.048,9.856
				l1.568-3.135l1.566,3.135l3.584,0.449l-2.688,2.463l0.672,3.584l-3.135-1.566l-3.137,1.792l0.672-3.584l-2.688-2.464
				L48.048,9.856z M45.584,19.49l3.584,0.448l-2.464,2.688l0.672,3.584l-3.136-1.568l-3.138,1.568l0.672-3.584l-2.688-2.464
				l3.584-0.448l1.568-3.136L45.584,19.49z M36.848,9.856l1.568-3.135l1.567,3.137l3.584,0.447L40.88,12.77l0.674,3.584
				l-3.138-1.568l-3.136,1.792l0.672-3.584l-2.688-2.464L36.848,9.856z M34.384,19.49l3.584,0.448l-2.688,2.688l0.672,3.584
				l-3.136-1.568L29.68,26.21l0.672-3.584l-2.688-2.464l3.584-0.448l1.568-3.136L34.384,19.49z M23.856,16.578l0.672-3.584
				L21.84,10.53l3.584-0.448l1.568-3.136l1.568,3.136l3.584,0.448l-2.688,2.464l0.672,3.584l-2.912-1.792L23.856,16.578z
				 M38.416,69.889c-9.856,0-17.92-8.062-17.92-17.92c0-9.854,8.064-17.919,17.92-17.919c9.854,0,17.92,8.064,17.92,17.919
				C56.336,61.826,48.271,69.889,38.416,69.889z"/>
			<path d="M46.704,40.32c0.225-0.226,0.672-0.447,0.896-0.672c-0.672-0.447-1.345-0.896-2.017-1.343
				C45.81,38.977,46.256,39.648,46.704,40.32z"/>
			<path d="M40.88,66.977c1.568-0.672,2.912-2.24,4.032-4.256c-0.896-0.449-1.792-0.672-2.688-0.896
				C41.774,63.617,41.554,65.633,40.88,66.977z"/>
			<path d="M36.624,61.377c0.448,3.137,1.12,5.152,1.568,5.824h0.224h0.224c0.448-0.896,1.12-2.912,1.568-5.824
				c-0.672,0-1.12,0-1.792,0S37.296,61.377,36.624,61.377z"/>
			<path d="M36.4,59.361c0.672,0,1.344-0.226,2.016-0.226s1.344,0,2.017,0.226c0.226-1.793,0.226-3.81,0.447-6.049h-4.704
				C36.176,55.553,36.176,57.568,36.4,59.361z"/>
			<path d="M38.416,44.801c-0.672,0-1.344,0-2.016-0.225c-0.224,1.793-0.224,3.809-0.224,6.049h4.479
				c0-2.24-0.225-4.256-0.447-6.049C39.76,44.576,39.088,44.801,38.416,44.801z"/>
		</g>
	</g>
</g>
<g>
</g>
<g>
</g>
<g>
</g>
<g>
</g>
<g>
</g>
<g>
</g>
<g>
</g>
<g>
</g>
<g>
</g>
<g>
</g>
<g>
</g>
<g>
</g>
<g>
</g>
<g>
</g>
<g>
</g>
</svg>
